<?xml version="1.0" standalone="no"?>
<!DOCTYPE svg PUBLIC "-//W3C//DTD SVG 20010904//EN"
 "http://www.w3.org/TR/2001/REC-SVG-20010904/DTD/svg10.dtd">
<svg version="1.0" xmlns="http://www.w3.org/2000/svg"
 width="1280.000000pt" height="890.000000pt" viewBox="0 0 1280.000000 890.000000"
 preserveAspectRatio="xMidYMid meet">
<metadata>
Created by potrace 1.15, written by Peter Selinger 2001-2017
</metadata>
<g transform="translate(0.000000,890.000000) scale(0.100000,-0.100000)"
fill="#ffeb3b" stroke="none">
<path d="M6461 8850 c-1 -3 6 -37 14 -75 23 -110 19 -386 -10 -701 -33 -355
-52 -457 -155 -814 -58 -203 -97 -361 -122 -500 -21 -115 -23 -153 -22 -490 0
-349 4 -424 40 -752 l7 -58 41 8 c22 4 159 7 304 7 l262 0 0 51 c0 98 -32 383
-85 764 -30 212 -60 432 -67 490 -15 124 -16 541 -4 1010 7 240 6 353 -3 430
-25 215 -75 389 -157 550 -23 47 -43 83 -43 80z"/>
<path d="M8715 8502 c-74 -32 -120 -60 -201 -126 -244 -196 -561 -618 -730
-971 -96 -200 -108 -260 -124 -605 -6 -124 -18 -259 -26 -300 -16 -83 -90
-302 -211 -630 -83 -222 -128 -364 -139 -437 l-6 -42 43 -11 c93 -23 279 -83
384 -125 61 -24 116 -45 123 -47 14 -3 50 105 162 495 99 341 114 417 175 885
59 456 95 624 194 913 152 445 330 860 418 975 l33 44 -28 -1 c-15 0 -45 -8
-67 -17z"/>
<path d="M4395 8335 c-6 -99 -9 -286 -9 -415 3 -357 36 -586 121 -840 59 -177
130 -313 277 -534 228 -340 391 -713 519 -1182 l32 -121 90 34 c113 44 367
117 463 134 44 7 71 17 68 23 -2 6 -26 63 -54 126 -27 63 -89 223 -136 355
-134 367 -215 548 -306 679 -18 27 -92 116 -164 199 -293 335 -362 418 -460
547 -113 149 -179 255 -254 405 -109 219 -153 401 -175 730 -1 22 -7 -41 -12
-140z"/>
<path d="M2515 7745 c23 -69 129 -345 131 -342 2 2 -9 51 -25 110 -15 59 -26
107 -24 107 5 0 98 -190 146 -300 26 -58 98 -229 161 -381 211 -510 302 -671
531 -939 44 -52 187 -223 317 -380 362 -438 586 -687 729 -811 l58 -50 94 74
c112 88 263 188 364 243 40 21 73 41 73 44 0 3 -35 28 -77 57 -265 176 -651
569 -1237 1258 -286 336 -355 408 -643 666 -302 272 -400 378 -504 550 -28 46
-48 73 -44 59 17 -56 17 -56 5 -40 -6 8 -22 33 -36 55 -14 22 -23 31 -19 20z"/>
<path d="M10113 7530 c-26 -107 -97 -261 -176 -380 -142 -216 -310 -392 -752
-795 -170 -155 -346 -320 -390 -366 -199 -210 -418 -467 -531 -624 -67 -93
-174 -271 -174 -288 0 -3 33 -24 73 -47 140 -83 304 -203 435 -318 40 -36 74
-63 76 -61 12 17 85 143 180 313 62 111 173 292 246 401 155 233 424 662 537
860 245 426 408 830 472 1165 21 110 36 230 30 230 -2 0 -14 -41 -26 -90z"/>
<path d="M1110 6305 c195 -355 313 -511 527 -693 258 -220 421 -330 700 -475
271 -141 310 -168 668 -461 158 -130 288 -250 465 -427 211 -212 364 -350 374
-338 1 2 18 31 36 64 72 128 198 310 287 412 l53 61 -287 239 c-625 520 -629
522 -1173 752 -603 256 -805 353 -1051 507 -85 53 -217 133 -294 177 -173 99
-216 128 -284 192 l-54 50 33 -60z"/>
<path d="M11575 5985 c-106 -31 -165 -55 -272 -109 -282 -142 -621 -435 -846
-733 -176 -231 -283 -316 -432 -344 -32 -6 -178 -12 -325 -12 l-265 -2 -65
-34 c-98 -51 -500 -293 -500 -301 0 -4 34 -49 76 -101 96 -120 205 -284 284
-427 l62 -113 42 39 c108 100 266 204 630 417 506 295 617 372 761 527 101
109 165 197 370 508 199 303 272 403 363 501 56 61 164 158 212 191 23 15 23
17 5 17 -11 0 -56 -11 -100 -24z"/>
<path d="M6334 5160 c-224 -20 -486 -76 -699 -150 -144 -50 -404 -174 -535
-255 -320 -199 -612 -480 -815 -785 -682 -1026 -531 -2344 368 -3207 362 -347
820 -589 1322 -698 224 -49 334 -59 605 -59 213 0 279 4 400 23 434 67 809
209 1151 438 604 403 1004 1009 1126 1703 31 178 42 477 24 651 -122 1191
-1056 2134 -2296 2319 -157 23 -499 34 -651 20z"/>
<path d="M12055 4335 c-273 -43 -483 -125 -1115 -435 -456 -224 -621 -297
-800 -355 -192 -62 -277 -77 -468 -82 l-174 -5 25 -27 c19 -19 29 -49 41 -116
22 -122 38 -390 30 -499 -7 -84 -6 -88 12 -83 10 3 47 13 80 21 34 9 115 34
180 57 333 114 638 272 1239 638 740 452 1084 616 1520 726 l169 43 -54 27
c-75 38 -178 72 -273 90 -96 18 -299 18 -412 0z"/>
<path d="M80 4288 c332 -161 454 -239 750 -479 512 -414 579 -464 769 -578
328 -198 748 -322 1273 -376 248 -25 367 -16 438 35 69 49 102 186 92 383 l-5
87 -51 0 c-130 0 -647 74 -812 115 -193 49 -334 119 -717 359 -509 318 -611
351 -1177 386 -289 18 -449 39 -565 74 -11 4 -9 1 5 -6z"/>
</g>
</svg>
